# xmcd
#
# Track frame offsets: 
#        150
#        5206
#        16947
#        28661
#        36262
#        47640
#        56922
#        62269
#        72438
#        83564
#        91289
#        101142
#        106917
#        115998
#        127067
#        138114
#        145700
#        157331
#        166868
#        177166
#        187675
#        200107
#        209381
#        220796
#        230574
#        240721
#
# Disc length: 3271 seconds
#
# Revision: 0
# Processed by: cddbd v1.5.2PL0 Copyright (c) Steve Scherf et al.
# Submitted via: ExactAudioCopy v1.3
#
DISCID=710cc51a
DTITLE=Jim and Jesse And The Virginia Boys, 1962 - Jim and Jesse_Radio Sho
DTITLE=ws (1962, Rural Rhythm)
DYEAR=2014
DGENRE=Bluegrass
TTITLE0=Intro
TTITLE1=Diesel Train
TTITLE2=Going Like Wildfire
TTITLE3=Snowflake Breakdown
TTITLE4=The Family Who Prays Together
TTITLE5='Till These Dreams Come True
TTITLE6=Everything She Touches Gets The Blues
TTITLE7=Sitting On Top Of The World
TTITLE8=Have You Lost Your Love For Me?
TTITLE9=Bluegrass Breakdown 
TTITLE10=Press On O'Pilgrim 
TTITLE11=Bye Bye Blues
TTITLE12=Don't This Road Look Rough And Rocky
TTITLE13=On The Mississippi Shore
TTITLE14=How Do You Talk To A Baby
TTITLE15=Beer Barrel Polka
TTITLE16=Will There Be Any Stars In My Crown
TTITLE17=I Cried Again
TTITLE18=I Can't Help Wondering
TTITLE19=There's More Pretty Girls Than One 
TTITLE20=On The Banks Of The Ohio 
TTITLE21=Cheyenne 
TTITLE22=Precious Memories
TTITLE23=Foggy Mountain Top 
TTITLE24=Heartaches And Flowers
TTITLE25=So Long 'Til Next Time 
EXTD=
EXTT0=
EXTT1=
EXTT2=
EXTT3=
EXTT4=
EXTT5=
EXTT6=
EXTT7=
EXTT8=
EXTT9=
EXTT10=
EXTT11=
EXTT12=
EXTT13=
EXTT14=
EXTT15=
EXTT16=
EXTT17=
EXTT18=
EXTT19=
EXTT20=
EXTT21=
EXTT22=
EXTT23=
EXTT24=
EXTT25=
PLAYORDER=
